#!OML:ASF X:\für Bonn\!DataBase\2005_08_10_Bjorn_Final\c3d\bjorn.ASF
:FULLY-SPECIFIED
:DEGREES
727
root -0.145346 1.58357 10.2477 -2430.99 -3.67942 184.804
lowerback -0.601584 0.56817 -5.88769
upperback 3.30728 0.784905 -3.99722
thorax 3.73053 0.164815 -0.813674
lowerneck -19.2366 -4.96983 -1.0204
upperneck 11.2242 -6.91551 3.72066
head 6.72195 -2.95024 0.601221
rclavicle -2.38542e-015 -1.89839e-014
rhumerus -428.295 52.1556 254.116
rradius 111.798
rwrist -33.066
rhand 7.55429 8.80858
rfingers 7.12502
rthumb 32.8031 -18.233
lclavicle -2.38542e-015 -1.89839e-014
lhumerus -68.7243 -66.5016 110.551
lradius 109.382
lwrist 35.6109
lhand -0.995568 -12.1865
lfingers 7.12502
lthumb 24.6365 736.248
rfemur -186.442 -159.733 185.169
rtibia 27.6925
rfoot 8.40159 0.794289
rtoes -0.306752
lfemur 174.837 175.481 161.254
ltibia 22.6058
lfoot 8.54261 9.19893
ltoes -0.750339
728
root -0.145169 1.58297 10.2467 -2430.96 -3.69457 184.86
lowerback -0.636664 0.553912 -5.91044
upperback 3.31317 0.770601 -3.99816
thorax 3.75689 0.156655 -0.802485
lowerneck -19.2655 -4.97767 -1.02179
upperneck 11.2119 -6.92589 3.72996
head 6.72335 -2.95382 0.60281
rclavicle 3.4191e-014 -3.34952e-014
rhumerus -428.242 52.1537 254.168
rradius 111.785
rwrist -33.0783
rhand 7.56096 8.79363
rfingers 7.12502
rthumb 32.8095 -18.2466
lclavicle 3.4191e-014 -3.34952e-014
lhumerus -68.6693 -66.5234 110.499
lradius 109.391
lwrist 35.6095
lhand -0.983231 -12.1588
lfingers 7.12502
lthumb 24.6483 736.274
rfemur -186.391 -159.72 185.107
rtibia 27.6538
rfoot 7.9597 -0.017223
rtoes 0.314331
lfemur 174.782 175.475 161.251
ltibia 22.6441
lfoot 8.46131 9.31879
ltoes -0.576336
729
root -0.145507 1.58159 10.2441 -2430.95 -3.69497 184.925
lowerback -0.654101 0.534995 -5.91736
upperback 3.3233 0.748777 -3.99227
thorax 3.77791 0.145454 -0.793382
lowerneck -19.2682 -4.98663 -1.03438
upperneck 11.1764 -6.93559 3.75191
head 6.7138 -2.95722 0.611134
rclavicle 2.14687e-014 -1.42131e-014
rhumerus -428.164 52.1706 254.243
rradius 111.776
rwrist -33.1045
rhand 7.57353 8.71454
rfingers 7.12502
rthumb 32.8214 -18.3232
lclavicle 2.14687e-014 -1.42131e-014
lhumerus -68.5971 -66.5542 110.447
lradius 109.367
lwrist 35.5678
lhand -1.00803 -12.1867
lfingers 7.12502
lthumb 24.6245 736.249
rfemur -186.321 -159.757 185.061
rtibia 27.6175
rfoot 7.47933 -0.881054
rtoes 1.18452
lfemur 174.745 175.48 161.263
ltibia 22.6776
lfoot 8.35081 9.48522
ltoes -0.243549
730
root -0.146136 1.58046 10.2433 -2430.91 -3.71043 184.998
lowerback -0.667051 0.508619 -5.93726
upperback 3.30826 0.716017 -3.99655
thorax 3.77052 0.129731 -0.787807
lowerneck -19.2591 -4.98817 -1.01706
upperneck 11.1764 -6.94119 3.74713
head 6.71164 -2.9595 0.606452
rclavicle 1.19271e-014 1.38155e-014
rhumerus -428.178 52.1758 254.226
rradius 111.767
rwrist -33.0773
rhand 7.57594 8.70102
rfingers 7.12502
rthumb 32.8237 -18.3362
lclavicle 1.19271e-014 1.38155e-014
lhumerus -68.6414 -66.5467 110.473
lradius 109.372
lwrist 35.5371
lhand -1.00397 -12.1859
lfingers 7.12502
lthumb 24.6284 736.25
rfemur -186.267 -159.807 185.008
rtibia 27.5746
rfoot 7.00245 -1.7144
rtoes 2.1046
lfemur 174.689 175.474 161.263
ltibia 22.7095
lfoot 8.25802 9.60529
ltoes 0.0606323
731
root -0.146126 1.58 10.242 -2430.89 -3.73911 185.045
lowerback -0.697601 0.490275 -5.98247
upperback 3.31508 0.696696 -3.98784
thorax 3.79518 0.118438 -0.754412
lowerneck -19.2831 -4.9925 -1.05103
upperneck 11.1689 -6.94139 3.7716
head 6.7153 -2.95857 0.619209
rclavicle -1.43125e-014 1.58034e-014
rhumerus -428.108 52.2102 254.3
rradius 111.752
rwrist -33.1003
rhand 7.62317 8.63196
rfingers 7.12502
rthumb 32.8687 -18.3959
lclavicle -1.43125e-014 1.58034e-014
lhumerus -68.5613 -66.548 110.418
lradius 109.376
lwrist 35.4982
lhand -1.03292 -12.2017
lfingers 7.12502
lthumb 24.6007 736.238
rfemur -186.214 -159.853 184.937
rtibia 27.5353
rfoot 6.54818 -2.49085
rtoes 3.06438
lfemur 174.656 175.518 161.243
ltibia 22.7364
lfoot 8.08736 9.85379
ltoes 0.619656
732
root -0.146524 1.57901 10.2405 -2430.86 -3.74146 185.11
lowerback -0.721069 0.47297 -5.97433
upperback 3.31969 0.676617 -3.99947
thorax 3.8142 0.108641 -0.771753
lowerneck -19.288 -4.99786 -1.03601
upperneck 11.1379 -6.95298 3.79362
head 6.70669 -2.96115 0.622943
rclavicle -3.18055e-015 -3.42904e-014
rhumerus -428.043 52.2142 254.342
rradius 111.746
rwrist -33.1198
rhand 7.6298 8.60172
rfingers 7.12502
rthumb 32.875 -18.4248
lclavicle -3.18055e-015 -3.42904e-014
lhumerus -68.5423 -66.5866 110.385
lradius 109.377
lwrist 35.5115
lhand -1.05265 -12.1923
lfingers 7.12502
lthumb 24.5817 736.25
rfemur -186.155 -159.949 184.904
rtibia 27.4934
rfoot 6.02916 -3.3157
rtoes 4.3715
lfemur 174.613 175.489 161.26
ltibia 22.7578
lfoot 8.00112 9.98491
ltoes 0.838914
733
root -0.146865 1.57805 10.2385 -2430.84 -3.75443 185.165
lowerback -0.746957 0.452018 -5.99806
upperback 3.31991 0.652806 -3.99812
thorax 3.82975 0.0962551 -0.758057
lowerneck -19.2963 -4.99312 -1.01022
upperneck 11.1347 -6.95007 3.77419
head 6.70528 -2.96036 0.612851
rclavicle -1.19271e-014 3.93594e-014
rhumerus -428.006 52.2366 254.362
rradius 111.727
rwrist -33.0972
rhand 7.6155 8.56589
rfingers 7.12502
rthumb 32.8614 -18.4635
lclavicle -1.19271e-014 3.93594e-014
lhumerus -68.5078 -66.592 110.35
lradius 109.369
lwrist 35.4901
lhand -1.05509 -12.2396
lfingers 7.12502
lthumb 24.5794 736.203
rfemur -186.103 -160.031 184.854
rtibia 27.4528
rfoot 5.5386 -4.08152
rtoes 5.57621
lfemur 174.581 175.569 161.253
ltibia 22.781
lfoot 7.80978 10.2391
ltoes 1.43701
734
root -0.14712 1.57732 10.2374 -2430.82 -3.77116 185.222
lowerback -0.764588 0.436298 -6.02267
upperback 3.33026 0.635229 -3.99634
thorax 3.85099 0.0863557 -0.743351
lowerneck -19.3183 -5.01108 -1.03287
upperneck 11.1115 -6.96962 3.7935
head 6.70334 -2.96862 0.620214
rclavicle -1.66979e-014 -3.33958e-014
rhumerus -427.935 52.252 254.421
rradius 111.707
rwrist -33.1321
rhand 7.61513 8.5352
rfingers 7.12502
rthumb 32.861 -18.4942
lclavicle -1.66979e-014 -3.33958e-014
lhumerus -68.4587 -66.6198 110.314
lradius 109.382
lwrist 35.4539
lhand -1.08827 -12.2057
lfingers 7.12502
lthumb 24.5476 736.241
rfemur -186.046 -160.126 184.799
rtibia 27.4127
rfoot 5.04047 -4.80844
rtoes 6.6542
lfemur 174.556 175.607 161.249
ltibia 22.8038
lfoot 7.62329 10.4615
ltoes 1.75958
735
root -0.147492 1.5767 10.236 -2430.79 -3.78565 185.278
lowerback -0.807353 0.413961 -6.04796
upperback 3.33853 0.611904 -3.98667
thorax 3.88448 0.0737108 -0.720243
lowerneck -19.3415 -5.01413 -1.05177
upperneck 11.0979 -6.96877 3.79733
head 6.70346 -2.96871 0.62417
rclavicle -3.65764e-014 9.73051e-014
rhumerus -427.867 52.3103 254.496
rradius 111.709
rwrist -33.1729
rhand 7.61368 8.48137
rfingers 7.12502
rthumb 32.8596 -18.5484
lclavicle -3.65764e-014 9.73051e-014
lhumerus -68.3914 -66.6299 110.263
lradius 109.387
lwrist 35.4453
lhand -1.12965 -12.2249
lfingers 7.12502
lthumb 24.5079 736.227
rfemur -186.012 -160.181 184.752
rtibia 27.381
rfoot 4.54892 -5.45242
rtoes 7.62008
lfemur 174.51 175.584 161.251
ltibia 22.8215
lfoot 7.51643 10.6468
ltoes 2.00035
736
root -0.147204 1.57571 10.2345 -2430.79 -3.80014 185.334
lowerback -0.799326 0.395443 -6.07754
upperback 3.33871 0.587898 -3.98634
thorax 3.88078 0.0612136 -0.704472
lowerneck -19.3405 -5.01166 -1.03572
upperneck 11.0794 -6.9686 3.80074
head 6.69691 -2.96769 0.623041
rclavicle 1.43125e-014 7.65321e-015
rhumerus -427.852 52.3286 254.494
rradius 111.689
rwrist -33.1551
rhand 7.59766 8.46935
rfingers 7.12502
rthumb 32.8444 -18.5636
lclavicle 1.43125e-014 7.65321e-015
lhumerus -68.3986 -66.6244 110.258
lradius 109.401
lwrist 35.4599
lhand -1.13274 -12.2213
lfingers 7.12502
lthumb 24.505 736.231
rfemur -185.946 -160.198 184.695
rtibia 27.354
rfoot 4.13115 -6.01631
rtoes 8.41052
lfemur 174.504 175.634 161.251
ltibia 22.8428
lfoot 7.29961 10.9237
ltoes 2.24235
737
root -0.148077 1.57504 10.2338 -2430.77 -3.80165 185.392
lowerback -0.822952 0.378185 -6.08143
upperback 3.34566 0.568679 -3.98112
thorax 3.90207 0.0514518 -0.697726
lowerneck -19.3762 -5.01927 -1.03449
upperneck 11.0733 -6.97785 3.79609
head 6.70067 -2.97188 0.619632
rclavicle 2.38542e-014 -3.17062e-014
rhumerus -427.77 52.3388 254.557
rradius 111.663
rwrist -33.1714
rhand 7.61214 8.45085
rfingers 7.12502
rthumb 32.8582 -18.5792
lclavicle 2.38542e-014 -3.17062e-014
lhumerus -68.341 -66.6609 110.213
lradius 109.405
lwrist 35.4359
lhand -1.15532 -12.2283
lfingers 7.12502
lthumb 24.4833 736.227
rfemur -185.916 -160.099 184.645
rtibia 27.3374
rfoot 3.80461 -6.4529
rtoes 8.908
lfemur 174.471 175.617 161.268
ltibia 22.863
lfoot 7.14728 11.1349
ltoes 2.17026
